<?xml version="1.0"?>
<svg xmlns="http://www.w3.org/2000/svg" viewBox="0 0 64 64" width="512" height="512"><circle cx="32" cy="32" fill="#fdbd40" r="9"/><path d="m32 46c-13.458 0-24-6.149-24-14s10.542-14 24-14 24 6.149 24 14-10.542 14-24 14zm0-26c-12.131 0-22 5.383-22 12s9.869 12 22 12 22-5.383 22-12-9.869-12-22-12z" fill="#cfdfe8"/><path d="m32 52c-16.542 0-30-9.2-30-20.5s13.458-20.5 30-20.5 30 9.2 30 20.5-13.458 20.5-30 20.5zm0-39c-15.439 0-28 8.3-28 18.5s12.561 18.5 28 18.5 28-8.3 28-18.5-12.561-18.5-28-18.5z" fill="#cfdfe8"/><circle cx="41" cy="13" fill="#e9686a" r="4"/><circle cx="14" cy="40" fill="#f7979c" r="3"/><circle cx="34" cy="51" fill="#32b1cc" r="4"/><g fill="#f7979c"><path d="m7 16a1 1 0 0 1 -1-1 3 3 0 0 0 -3-3 1 1 0 0 1 0-2 3 3 0 0 0 3-3 1 1 0 0 1 2 0 3 3 0 0 0 3 3 1 1 0 0 1 0 2 3 3 0 0 0 -3 3 1 1 0 0 1 -1 1zm-1-5a5.017 5.017 0 0 1 1 1 5.017 5.017 0 0 1 1-1 5.017 5.017 0 0 1 -1-1 5.017 5.017 0 0 1 -1 1z"/><path d="m16 2h2v2h-2z"/><path d="m16 6h2v2h-2z"/><path d="m14 4h2v2h-2z"/><path d="m18 4h2v2h-2z"/><path d="m57 62a1 1 0 0 1 -1-1 3 3 0 0 0 -3-3 1 1 0 0 1 0-2 3 3 0 0 0 3-3 1 1 0 0 1 2 0 3 3 0 0 0 3 3 1 1 0 0 1 0 2 3 3 0 0 0 -3 3 1 1 0 0 1 -1 1zm-1-5a5.017 5.017 0 0 1 1 1 5.017 5.017 0 0 1 1-1 5.017 5.017 0 0 1 -1-1 5.017 5.017 0 0 1 -1 1z"/><path d="m46 52h2v2h-2z"/><path d="m46 56h2v2h-2z"/><path d="m48 54h2v2h-2z"/><path d="m44 54h2v2h-2z"/></g><path d="m26.586 27h2.828v2h-2.828z" fill="#f4f4e6" transform="matrix(.70710678 -.70710678 .70710678 .70710678 -11.598 28)"/></svg>
